<?xml version="1.0" standalone="no"?>
<!DOCTYPE svg PUBLIC "-//W3C//DTD SVG 20010904//EN"
 "http://www.w3.org/TR/2001/REC-SVG-20010904/DTD/svg10.dtd">
<svg version="1.0" xmlns="http://www.w3.org/2000/svg"
 width="343.000000pt" height="343.000000pt" viewBox="0 0 343.000000 343.000000"
 preserveAspectRatio="xMidYMid meet">
<metadata>
Created by potrace 1.11, written by Peter Selinger 2001-2013
</metadata>
<g transform="translate(0.000000,343.000000) scale(0.100000,-0.100000)"
fill="#000000" stroke="none">
<path d="M1735 3260 c6 -18 2 -20 -47 -20 -60 0 -101 -23 -178 -100 -71 -70
-161 -150 -169 -150 -11 0 -88 -122 -109 -172 -14 -36 -17 -74 -16 -228 0
-173 2 -190 27 -265 16 -49 35 -143 48 -245 22 -172 56 -284 114 -372 14 -21
25 -42 25 -47 0 -5 33 -26 73 -46 40 -20 92 -57 118 -83 25 -26 73 -64 107
-85 95 -57 95 -90 1 -94 -42 -1 -63 5 -126 39 -77 42 -99 34 -31 -10 l35 -24
-27 -51 c-16 -29 -31 -72 -35 -97 -4 -25 -16 -63 -27 -85 l-19 -40 20 25 c30
36 25 13 -9 -48 -18 -33 -24 -52 -15 -49 10 4 12 -1 9 -21 -3 -15 -7 -34 -11
-42 -7 -18 -13 -54 -16 -100 -1 -19 -6 -41 -10 -47 -5 -7 -4 -13 1 -13 5 0 9
-7 9 -15 0 -8 -4 -15 -8 -15 -4 0 -7 -33 -7 -74 0 -41 -3 -79 -6 -84 -3 -6 -3
-17 0 -26 5 -13 10 -14 20 -5 11 9 13 0 11 -55 -1 -36 1 -66 5 -66 5 0 8 11 8
24 0 28 19 45 30 26 8 -14 24 15 22 40 -1 8 3 22 8 30 8 12 11 13 19 1 10 -15
20 -4 26 31 7 32 25 47 22 17 -2 -28 15 -43 19 -16 7 48 33 67 35 25 1 -22 1
-22 8 1 8 30 29 39 37 17 6 -15 8 -15 20 1 7 10 14 26 14 36 0 9 5 17 11 17 7
0 9 -10 7 -25 -4 -17 -1 -25 9 -25 8 0 12 4 8 9 -11 18 18 63 37 58 13 -4 18
1 18 17 0 12 7 31 15 42 8 10 15 27 15 36 0 9 8 21 17 26 15 9 15 12 1 33 -8
13 -35 47 -60 74 -24 28 -63 77 -85 110 -22 33 -59 80 -82 105 -46 50 -45 49
-29 85 11 25 41 34 53 15 3 -5 14 -10 24 -10 17 0 44 -21 118 -91 31 -28 66
-110 54 -122 -6 -6 -6 -16 1 -27 12 -19 4 -55 -11 -46 -5 3 -11 -3 -14 -14 -3
-13 1 -21 14 -25 10 -4 19 -13 19 -20 0 -33 25 -24 76 26 30 29 54 61 54 70 0
19 54 122 125 239 87 143 139 248 200 404 71 184 85 235 75 279 -7 35 -29 79
-30 62 0 -5 -2 -46 -3 -90 -4 -87 -22 -138 -50 -143 -20 -4 -20 -11 3 119 6
37 10 79 8 95 -3 23 -5 19 -11 -21 -5 -27 -10 -64 -13 -81 -2 -18 -22 -52 -44
-77 -33 -37 -45 -44 -72 -43 -18 2 -39 -2 -45 -7 -19 -14 -66 1 -59 18 7 20
-7 27 -64 31 -49 3 -111 34 -139 68 -15 18 -61 22 -61 5 0 -12 -20 -10 -98 10
-35 9 -50 9 -74 -3 -21 -11 -36 -12 -54 -5 -14 5 -30 6 -36 3 -8 -5 -4 3 19
45 1 2 16 -2 33 -9 26 -11 33 -10 50 5 11 10 20 22 20 27 0 14 21 31 53 46 33
14 31 31 -6 52 -25 14 -30 13 -71 -8 -59 -32 -119 -28 -125 8 -2 18 16 312 23
350 1 9 -79 31 -129 35 -76 5 -115 16 -115 31 0 8 4 14 9 14 16 0 62 93 66
133 3 31 1 37 -13 35 -10 -2 -17 3 -17 12 0 8 6 14 13 12 15 -3 15 13 0 38 -9
15 -9 24 1 44 14 26 30 34 126 61 33 9 80 23 104 31 71 23 140 18 222 -16 94
-38 119 -63 122 -120 1 -25 6 -51 10 -58 12 -19 64 -43 105 -48 20 -3 46 -6
57 -9 11 -2 26 -4 32 -4 20 -1 39 -50 63 -161 32 -153 48 -205 69 -224 26 -24
35 -6 34 62 -1 45 1 53 15 50 9 -2 24 -18 32 -35 18 -39 34 -37 38 4 3 34 -25
69 -65 79 -29 8 -32 44 -4 44 21 0 31 19 31 55 0 13 6 28 14 32 12 7 12 18 0
83 -8 41 -18 125 -23 185 -12 137 -35 239 -62 266 -11 11 -18 27 -15 37 4 12
-10 30 -48 60 -30 23 -60 42 -67 42 -7 0 -23 9 -35 21 -12 11 -36 21 -55 21
-19 1 -49 9 -68 19 -21 11 -44 16 -62 12 -21 -4 -30 -1 -35 11 -7 17 -34 22
-34 6 0 -15 -22 -12 -69 11 -42 20 -79 19 -66 -1 3 -5 1 -10 -4 -10 -6 0 -11
9 -11 20 0 11 -5 20 -11 20 -6 0 -8 -9 -4 -20z m-248 -1046 c-3 -3 -12 -4 -19
-1 -8 3 -5 6 6 6 11 1 17 -2 13 -5z m3 -180 c0 -54 -19 -94 -43 -91 -38 4 -77
69 -54 91 13 13 44 27 53 23 3 -1 10 6 16 17 14 24 28 4 28 -40z m20 -114 c0
-5 -2 -10 -4 -10 -3 0 -8 5 -11 10 -3 6 -1 10 4 10 6 0 11 -4 11 -10z m338
-116 c55 -11 35 -38 -30 -39 -20 0 -34 4 -31 9 4 5 -20 7 -55 3 -62 -5 -82 4
-39 18 12 5 31 12 42 16 20 8 50 6 113 -7z m-188 -30 c0 -9 -7 -14 -17 -12
-25 5 -28 28 -4 28 12 0 21 -6 21 -16z m344 -121 c-8 -8 -14 -19 -14 -24 0
-32 -164 -49 -226 -23 -17 7 -39 11 -50 8 -12 -3 -24 3 -31 15 -22 35 15 46
171 49 77 1 142 5 145 7 2 3 8 0 12 -6 4 -7 1 -19 -7 -26z m-458 -668 c-4 -14
-13 -25 -21 -25 -20 0 -19 11 2 37 21 26 28 22 19 -12z"/>
<path d="M1236 2904 c-4 -9 -4 -19 -1 -22 2 -3 7 3 11 12 4 9 4 19 1 22 -2 3
-7 -3 -11 -12z"/>
<path d="M1860 2510 c-8 -6 -51 -21 -94 -35 -112 -36 -139 -53 -131 -85 4 -14
13 -32 20 -40 8 -8 30 -34 50 -57 20 -23 44 -42 53 -42 9 0 47 0 83 -1 81 -1
106 8 144 52 17 20 39 38 50 42 26 8 48 55 35 71 -6 7 -32 18 -58 24 -76 20
-110 40 -105 62 6 21 -21 26 -47 9z m95 -120 c16 -7 13 -9 -17 -9 -21 -1 -38
4 -38 9 0 12 27 12 55 0z m2 -54 c-4 -10 -1 -13 9 -9 7 3 14 0 14 -5 0 -10
-38 -27 -45 -20 -4 5 14 48 21 48 3 0 4 -7 1 -14z m-93 -17 c15 -18 15 -23 5
-30 -25 -15 -35 -10 -37 21 -3 35 7 38 32 9z"/>
<path d="M2412 2448 c-9 -9 -5 -17 13 -34 14 -13 25 -33 26 -46 0 -13 5 -32
10 -43 6 -14 8 -1 5 43 -5 78 -25 109 -54 80z"/>
<path d="M2373 2213 c-16 -6 -17 -33 -3 -33 11 0 26 28 19 34 -2 2 -10 1 -16
-1z"/>
<path d="M1340 1482 c0 -5 17 -17 38 -25 21 -9 52 -27 69 -41 38 -32 49 -33
55 -2 4 22 -1 28 -45 46 -59 26 -117 37 -117 22z"/>
<path d="M1231 1391 c-6 -10 -25 -21 -43 -25 -18 -3 -47 -20 -65 -36 -18 -17
-35 -30 -39 -30 -4 0 -15 -7 -25 -16 -17 -16 -51 -13 -48 3 1 4 -1 15 -4 23
-3 8 -7 24 -9 35 -3 14 -10 3 -25 -35 -27 -72 -37 -120 -25 -120 5 0 12 13 15
29 8 39 34 48 49 16 12 -27 38 -26 66 1 38 38 82 1 82 -69 0 -38 8 -52 35 -61
12 -3 25 -21 31 -42 12 -36 11 -37 -44 -90 -30 -30 -61 -54 -67 -54 -17 0 -25
23 -25 71 0 22 -4 47 -9 57 -14 25 -24 56 -23 65 1 4 -9 7 -22 7 -19 0 -23 -4
-19 -19 5 -21 -20 -31 -61 -24 -17 4 -26 12 -26 24 0 28 -12 24 -60 -19 -41
-36 -44 -42 -48 -100 -4 -51 1 -77 23 -137 l27 -74 103 2 c97 2 106 4 146 32
58 41 81 76 85 127 2 30 9 47 24 58 128 91 173 148 213 265 l24 71 -31 20
c-17 12 -54 24 -81 28 -28 4 -60 14 -72 22 -30 19 -40 18 -52 -5z m-325 -401
c-2 -29 -9 -55 -19 -65 -10 -9 -17 -22 -17 -28 0 -7 -7 -3 -15 7 -22 29 -19
93 6 127 29 41 48 24 45 -41z"/>
<path d="M2159 1198 c-7 -13 -12 -43 -11 -69 1 -46 -3 -54 -65 -143 -18 -25
-28 -46 -23 -46 6 0 9 -18 8 -40 -1 -45 6 -58 24 -43 7 6 20 11 28 11 28 2 45
7 69 24 13 10 28 15 33 12 4 -3 8 1 8 9 0 21 59 99 70 92 5 -3 14 4 20 15 8
15 18 19 43 16 18 -3 34 -5 37 -7 3 -1 9 -1 14 0 15 3 46 -10 42 -18 -3 -4 8
-5 25 -3 18 3 29 0 29 -7 0 -7 4 -10 9 -7 5 3 30 2 55 -3 25 -5 46 -7 46 -5 0
2 -24 21 -52 43 -50 37 -94 58 -199 95 -26 9 -76 34 -112 56 -36 22 -70 40
-76 40 -6 0 -16 -10 -22 -22z"/>
<path d="M1430 799 c0 -5 5 -7 10 -4 6 3 10 8 10 11 0 2 -4 4 -10 4 -5 0 -10
-5 -10 -11z"/>
<path d="M3020 639 c0 -11 5 -17 10 -14 6 3 10 13 10 21 0 8 -4 14 -10 14 -5
0 -10 -9 -10 -21z"/>
<path d="M800 630 c0 -5 7 -10 15 -10 18 0 19 -12 4 -27 -13 -13 -4 -33 17
-33 20 0 18 44 -4 63 -21 19 -32 22 -32 7z"/>
<path d="M560 603 l-25 -26 33 17 c17 9 32 21 32 26 0 17 -14 11 -40 -17z"/>
<path d="M937 607 c-12 -31 -8 -57 8 -57 16 0 17 10 6 50 -6 22 -8 23 -14 7z"/>
<path d="M1307 603 c-4 -3 -7 -11 -7 -17 0 -6 5 -5 12 2 6 6 9 14 7 17 -3 3
-9 2 -12 -2z"/>
<path d="M866 534 c-9 -23 -8 -24 24 -24 l30 0 -20 20 c-24 24 -26 24 -34 4z"/>
<path d="M1450 529 c0 -11 4 -18 10 -14 5 3 7 12 3 20 -7 21 -13 19 -13 -6z"/>
<path d="M1169 522 c-2 -7 -17 -14 -33 -16 -16 -2 -32 -10 -37 -19 -5 -9 -11
-59 -14 -112 -3 -53 -7 -101 -11 -106 -7 -12 26 -99 37 -99 5 0 9 -4 9 -10 0
-5 -7 -10 -15 -10 -8 0 -15 3 -15 8 0 6 -24 16 -92 39 -31 9 -21 -25 12 -42
16 -8 71 -30 123 -49 l94 -34 6 71 c3 45 1 77 -6 85 -6 8 -12 37 -13 65 -2 29
-3 55 -3 60 -1 4 -8 7 -17 7 -11 0 -14 5 -10 16 3 9 6 17 6 20 0 2 7 1 15 -2
11 -5 15 0 14 17 0 13 -3 18 -6 12 -2 -7 -8 -13 -13 -13 -12 0 -19 36 -9 51 8
12 11 11 19 -1 8 -13 10 -12 10 3 0 9 -6 17 -14 17 -8 0 -18 12 -23 28 -6 15
-12 21 -14 14z"/>
<path d="M846 485 c-3 -8 -1 -15 4 -15 6 0 10 7 10 15 0 8 -2 15 -4 15 -2 0
-6 -7 -10 -15z"/>
<path d="M1531 464 c0 -11 3 -14 6 -6 3 7 2 16 -1 19 -3 4 -6 -2 -5 -13z"/>
<path d="M860 410 c0 -5 7 -10 16 -10 8 0 12 5 9 10 -3 6 -10 10 -16 10 -5 0
-9 -4 -9 -10z"/>
<path d="M713 360 l-23 -18 24 -15 c23 -15 24 -15 29 11 7 36 -3 44 -30 22z"/>
<path d="M890 370 c0 -13 11 -13 30 0 12 8 11 10 -7 10 -13 0 -23 -4 -23 -10z"/>
<path d="M845 360 c-3 -6 1 -7 9 -4 18 7 21 14 7 14 -6 0 -13 -4 -16 -10z"/>
<path d="M2042 345 c0 -16 2 -22 5 -12 2 9 2 23 0 30 -3 6 -5 -1 -5 -18z"/>
<path d="M1928 43 c7 -3 16 -2 19 1 4 3 -2 6 -13 5 -11 0 -14 -3 -6 -6z"/>
</g>
</svg>
