<svg aria-hidden="true" style="position: absolute; width: 0; height: 0; overflow: hidden;" version="1.1" xmlns="http://www.w3.org/2000/svg" xmlns:xlink="http://www.w3.org/1999/xlink">
<defs>
<symbol id="icon-copy-link" viewBox="0 0 32 32">
<path d="M18.338 2.667c1.543 0 2.814 1.167 2.978 2.666l2.351 0.001c1.588 0 2.888 1.234 2.993 2.795l0.007 0.205v8c0 0.552-0.448 1-1 1-0.506 0-0.925-0.376-0.991-0.864l-0.009-0.136v-8c0-0.506-0.376-0.925-0.864-0.991l-0.136-0.009-2.842-0c-0.538 0.799-1.451 1.325-2.487 1.325h-4.676c-1.036 0-1.949-0.526-2.487-1.325l-2.842 0c-0.506 0-0.925 0.376-0.991 0.864l-0.009 0.136v18.006c0 0.506 0.376 0.925 0.864 0.991l0.271 0.018c0.488 0.066 0.864 0.485 0.864 0.991 0 0.552-0.448 1-1 1-1.588 0-2.888-1.234-2.993-2.795l-0.007-0.205v-18.006c0-1.588 1.234-2.888 2.795-2.993l0.205-0.007 2.351-0.001c0.164-1.499 1.435-2.666 2.978-2.666zM23 19.333h1.333c2.761 0 5 2.239 5 5 0 2.672-2.096 4.855-4.73 4.993l-0.265 0.007-1.333 0.006c-0.552 0.003-1.002-0.443-1.005-0.995-0.002-0.506 0.372-0.926 0.86-0.995l0.136-0.010 1.338-0.006c1.657 0 3-1.343 3-3 0-1.588-1.234-2.888-2.795-2.993l-0.205-0.007h-1.333c-0.552 0-1-0.448-1-1 0-0.506 0.376-0.925 0.864-0.991l0.136-0.009h1.333zM16.333 19.333h1.333c0.552 0 1 0.448 1 1 0 0.506-0.376 0.925-0.864 0.991l-0.136 0.009h-1.333c-1.657 0-3 1.343-3 3 0 1.588 1.234 2.888 2.795 2.993l0.205 0.007h1.333c0.552 0 1 0.448 1 1 0 0.506-0.376 0.925-0.864 0.991l-0.136 0.009h-1.333c-2.761 0-5-2.239-5-5 0-2.672 2.096-4.855 4.734-4.993l0.266-0.007h1.333zM16.333 23.333h8c0.552 0 1 0.448 1 1 0 0.506-0.376 0.925-0.864 0.991l-0.136 0.009h-8c-0.552 0-1-0.448-1-1 0-0.506 0.376-0.925 0.864-0.991l0.136-0.009h8zM18.338 4.667h-4.676c-0.55 0-0.996 0.446-0.996 0.996s0.446 0.996 0.996 0.996h4.676c0.55 0 0.996-0.446 0.996-0.996s-0.446-0.996-0.996-0.996z"></path>
</symbol>
</defs>
</svg>
